<svg width="566" height="394" viewBox="0 0 566 394" fill="none" xmlns="http://www.w3.org/2000/svg">
<g id="campaign_launch 1" clip-path="url(#clip0_6_57)" filter="url(#filter0_d_6_57)">
<path id="Vector" opacity="0.18" d="M245.652 20.2738C241.291 22.2936 237.007 24.4816 232.8 26.8839C183.61 54.8848 149.184 107.444 95.3271 124.902C80.746 129.631 65.0938 130.931 53.3126 141.275C44.8123 149.033 37.4148 157.918 31.3262 167.684C18.4524 187.921 9.90888 210.604 6.23378 234.305C-1.12564 280.208 9.17142 331.895 45.6931 363.339C73.1418 386.994 113.993 388.188 148.373 381.792C168.095 378.135 186.991 371.005 206.514 366.307C240.647 358.128 276.153 357.496 310.556 364.456C333.246 369.046 355.171 376.957 377.877 381.807C394.187 385.311 411.17 387.255 427.817 385.097C443.79 383.031 456.107 375.412 470.657 369.26C498.336 357.525 526.35 342.56 543.992 317.329C557.562 297.556 563.831 273.679 561.725 249.79C559.429 225.937 549.668 203.417 533.832 185.434C526.809 177.355 517.629 170.224 514.202 159.942C510.775 149.66 510.239 137.664 509.168 127.121C506.843 104.001 504.058 80.2234 492.797 59.9036C480.281 37.3192 458.111 21.146 433.922 12.0418C409.732 2.9377 383.584 0.336524 357.742 0.0305028C319.476 -0.352024 280.2 4.2383 245.652 20.2738Z" fill="#0387FF"/>
<path id="Vector_2" d="M500.906 221.896L474.896 240.257L359.409 321.399C350.54 327.79 341.303 333.656 331.747 338.965C323.959 343.172 319.506 351.205 310.081 353.347C305.401 354.161 300.609 354.078 295.959 353.103C288.357 351.865 280.877 349.966 273.606 347.426C272.718 347.12 271.448 346.936 271.051 347.793C270.653 348.65 272.795 348.558 272.045 347.977C204.341 338.796 139.652 314.314 72.5604 301.462C71.7809 301.317 71.0694 300.923 70.5332 300.339C69.997 299.756 69.665 299.013 69.5873 298.224C69.5096 297.435 69.6904 296.642 70.1025 295.965C70.5145 295.288 71.1355 294.763 71.8719 294.469C77.2729 292.266 83.1635 291.409 89.1153 290.246C99.8255 288.272 110.383 286.344 121.062 284.6C142.586 280.871 164.317 278.459 186.134 277.378C222.365 275.848 258.933 279.719 294.766 274.103C328.809 268.778 360.848 255.176 392.519 241.558C400.169 238.283 407.957 234.887 413.94 229.133C418.637 224.62 422.401 218.667 428.383 215.699C434.595 212.639 442.153 213.174 448.824 213.48C466.419 214.261 483.8 217.841 500.906 221.896Z" fill="url(#paint0_linear_6_57)"/>
<path id="Vector_3" d="M75.4981 278.678L226.726 212.884C230.001 211.24 233.698 210.626 237.329 211.124L424.374 227.022C427.954 227.527 427.312 242.92 424.374 245.383L313.906 339.424C310.579 342.361 306.596 344.458 302.292 345.539C297.987 346.62 293.486 346.653 289.166 345.636L76.8292 293.995C74.121 293.337 72.9582 279.933 75.4981 278.678Z" fill="#0387FF"/>
<path id="Vector_4" d="M75.4981 278.678L226.726 212.884C230.001 211.24 233.698 210.626 237.329 211.124L424.374 227.022C427.954 227.527 427.312 242.92 424.374 245.383L313.906 339.424C310.579 342.361 306.596 344.458 302.292 345.539C297.987 346.62 293.486 346.653 289.166 345.636L76.8292 293.995C74.121 293.337 72.9582 279.933 75.4981 278.678Z" fill="url(#paint1_linear_6_57)"/>
<path id="Vector_5" d="M424.42 234.474L313.952 328.514C310.628 331.456 306.646 333.557 302.341 334.641C298.035 335.724 293.533 335.759 289.212 334.741L76.8292 283.085C74.121 282.427 73.7691 278.143 76.2937 276.873L134.496 244.021L149.796 235.422L196.324 209.273C199.599 207.628 203.296 207.014 206.927 207.513L422.538 226.272C426.118 226.701 427.312 232.01 424.42 234.474Z" fill="#0387FF"/>
<path id="Vector_6" d="M206.912 212.639L403.994 241.787L343.329 291.057L141.075 250.127L206.912 212.639Z" fill="url(#paint2_linear_6_57)"/>
<path id="Vector_7" d="M406.381 247.112C405.8 248.872 403.887 249.775 402.158 250.463C389.554 255.192 376.703 259.237 363.663 262.582C351.285 265.994 338.372 269.437 325.734 267.172C324.147 266.759 322.501 266.625 320.868 266.774C318.175 267.264 316.186 269.452 314.09 271.181C303.64 279.78 288.37 277.822 275.059 275.404C275.635 271.016 275.921 266.594 275.916 262.169C240.313 262.808 204.72 260.382 169.533 254.916C161.883 253.738 141.213 252.804 135.995 246.454C135.35 245.754 134.833 244.946 134.465 244.067L149.765 235.468C150.459 235.498 151.146 235.606 151.816 235.789C192.527 247.079 234.84 251.475 277.002 248.795C278.089 243.302 272.412 236.432 276.727 232.79C278.147 231.78 279.867 231.279 281.608 231.367C288.067 231.116 294.489 232.462 300.305 235.285C303.747 236.968 306.991 239.171 310.709 240.12C314.347 240.842 318.079 240.961 321.756 240.472C345.229 238.715 368.782 238.265 392.305 239.125C396.176 239.263 400.23 239.492 403.52 241.527C405.448 242.69 407.116 244.955 406.381 247.112Z" fill="url(#paint3_linear_6_57)"/>
<path id="Vector_8" d="M186.287 262.337L267.501 278.755L225.502 313.014L141.075 294.071L186.287 262.337Z" fill="url(#paint4_linear_6_57)"/>
<path id="Vector_9" d="M145.68 300.008C146.511 301.676 147.686 303.149 149.129 304.328C150.572 305.507 152.249 306.366 154.05 306.848C160.017 308.286 194.794 317.191 194.794 317.191C194.794 317.191 200.455 317.864 203.592 314.131L145.68 300.008Z" fill="url(#paint5_linear_6_57)"/>
<path id="Vector_10" d="M200.731 207.421L423.166 239.079C424.796 239.306 426.451 238.902 427.794 237.95C429.136 236.997 430.064 235.567 430.387 233.953L462.12 73.7053C462.46 71.9951 462.435 70.2324 462.048 68.5322C461.661 66.832 460.92 65.2325 459.874 63.8379C458.827 62.4433 457.498 61.285 455.974 60.4384C454.45 59.5918 452.764 59.0759 451.027 58.9245L231.362 39.6604C228.129 39.3772 224.913 40.3719 222.405 42.4312C219.897 44.4906 218.295 47.4508 217.943 50.6772L200.731 207.421Z" fill="#0387FF"/>
<path id="Vector_11" d="M200.731 207.421L422.584 238.987C424.377 239.241 426.198 238.799 427.675 237.752C429.152 236.705 430.171 235.132 430.525 233.357L462.12 73.7053C462.46 71.9951 462.435 70.2324 462.048 68.5322C461.661 66.832 460.92 65.2325 459.874 63.8379C458.827 62.4433 457.498 61.285 455.974 60.4384C454.45 59.5918 452.764 59.0759 451.027 58.9245L231.362 39.6604C228.129 39.3772 224.913 40.3719 222.405 42.4312C219.897 44.4906 218.295 47.4508 217.943 50.6772L200.731 207.421Z" fill="url(#paint6_linear_6_57)"/>
<path id="Vector_12" d="M419.142 229.868L450.737 68.1816L226.726 47.4945L208.916 200.582L419.142 229.868Z" fill="white"/>
<path id="Vector_13" d="M400.72 97.5749L243.602 81.218L247.167 61.3267L404.331 77.6835C405.659 77.7696 406.954 78.1338 408.133 78.7525C409.311 79.3712 410.346 80.2306 411.172 81.275C411.997 82.3195 412.593 83.5256 412.922 84.8152C413.252 86.1049 413.306 87.4494 413.083 88.7615C412.48 91.501 410.881 93.9192 408.597 95.5475C406.313 97.1758 403.506 97.8982 400.72 97.5749Z" fill="#0387FF"/>
<path id="Vector_14" opacity="0.56" d="M243.602 81.2181L370.517 94.4536L374.082 74.501L247.167 61.2502L243.602 81.2181Z" fill="white"/>
<path id="Vector_15" d="M393.085 89.8098C395.768 88.7602 397.163 85.9124 396.199 83.4491C395.236 80.9858 392.28 79.8397 389.596 80.8893C386.913 81.9388 385.518 84.7866 386.481 87.2499C387.445 89.7133 390.401 90.8594 393.085 89.8098Z" stroke="white" stroke-width="1.04" stroke-miterlimit="10"/>
<path id="Vector_16" d="M394.6 93.6272C394.493 93.3671 393.162 89.7407 393.162 89.7407" stroke="white" stroke-width="1.04" stroke-miterlimit="10"/>
<path id="Vector_17" opacity="0.18" d="M399.205 126.371L238.859 109.204L239.7 106.572L400.032 123.74L399.205 126.371Z" fill="#0387FF"/>
<path id="Vector_18" opacity="0.18" d="M295.867 105.317L241.72 98.9061L242.822 94.1934L296.984 100.1L295.867 105.317Z" fill="#0387FF"/>
<path id="Vector_19" opacity="0.18" d="M397.216 136.975L236.87 119.807L237.696 117.176L398.043 134.343L397.216 136.975Z" fill="#0387FF"/>
<g id="Group" opacity="0.66">
<path id="Vector_20" opacity="0.18" d="M287.253 147.671L233.106 141.275L234.208 136.547L288.37 142.453L287.253 147.671Z" fill="#0387FF"/>
<path id="Vector_21" opacity="0.18" d="M390.163 169.674L229.816 152.506L230.658 149.859L391.004 167.042L390.163 169.674Z" fill="#0387FF"/>
<path id="Vector_22" opacity="0.18" d="M386.506 181.945L226.16 164.777L227.001 162.145L387.332 179.313L386.506 181.945Z" fill="#0387FF"/>
</g>
<path id="Vector_23" opacity="0.18" d="M383.4 208.462L223.222 187.545L224.048 184.929L384.226 205.845L383.4 208.462Z" fill="#0387FF"/>
<path id="Vector_24" d="M294.521 193.008C294.521 193.008 130.655 247.265 108.256 198.562C85.8563 149.859 208.518 136.516 208.518 136.516C208.518 136.516 65.1857 150.792 97.3468 210.956C129.508 271.12 304.298 211.629 304.298 211.629L294.521 193.008Z" fill="white"/>
<path id="Vector_25" d="M294.904 190.758C294.972 192.988 295.581 195.167 296.678 197.108L300.718 205.738C301.579 207.885 302.789 209.876 304.298 211.629C305.481 212.824 306.928 213.724 308.523 214.255C310.118 214.787 311.815 214.936 313.478 214.689C314.263 214.638 315.021 214.386 315.68 213.957C316.339 213.528 316.877 212.937 317.242 212.241C317.93 210.451 316.768 208.538 315.834 206.87C313.325 202.387 312.254 197.277 311.061 192.289C310.143 188.402 308.276 182.924 303.533 182.373C299.341 181.884 295.148 186.673 294.904 190.758Z" fill="#0387FF"/>
<path id="Vector_26" d="M336.061 170.653C336.061 170.653 301.391 138.934 267.501 170.653C267.501 170.653 293.695 167.271 301.773 181.7L336.061 170.653Z" fill="#0387FF"/>
<path id="Vector_27" d="M350.229 199.648C350.229 199.648 348.577 246.623 302.202 248.612C302.202 248.612 322.964 232.285 318.328 216.403L350.229 199.648Z" fill="#0387FF"/>
<path id="Vector_28" d="M301.773 181.731C301.773 181.731 411.094 118.996 472.555 129.034C472.555 129.034 458.662 174.203 318.282 216.403L301.773 181.731Z" fill="white"/>
<path id="Vector_29" d="M472.631 129.003C472.631 129.003 458.739 174.172 318.359 216.372L313.356 205.861L301.773 181.731C301.773 181.731 398.808 125.974 461.431 127.963C465.183 128.065 468.925 128.412 472.631 129.003Z" fill="url(#paint7_linear_6_57)"/>
<path id="Vector_30" d="M472.631 129.003C462.916 141.749 429.377 165.236 360.435 190.284C356.538 191.712 352.524 193.14 348.393 194.568C337.53 198.322 325.851 202.086 313.356 205.86L301.789 181.731C301.789 181.731 313.738 174.555 332.007 165.435C341.646 160.615 353.045 155.26 365.377 150.134C399.787 135.828 441.495 123.204 472.631 129.003Z" fill="white"/>
<path id="Vector_31" d="M388.388 152.429C382.559 154.862 376.01 154.464 369.706 154.877C367.833 154.952 365.974 155.245 364.168 155.75C360.603 157.129 357.351 159.21 354.605 161.87C354.232 162.126 353.953 162.497 353.809 162.926C353.768 163.371 353.876 163.818 354.115 164.196C355.511 167.04 357.117 169.776 358.92 172.382C361.062 175.442 363.586 178.701 363.51 182.465C363.292 185.347 362.174 188.088 360.312 190.299L359.853 190.942C357.646 193.914 355.249 196.741 352.677 199.403C350.78 201.362 352.004 207.345 347.414 205.906C343.421 204.667 345.364 199.924 346.726 197.43L348.256 194.584L350.826 189.825C352.784 186.229 354.773 181.96 353.121 178.211C351.958 175.595 349.281 174.019 346.771 172.611C342.036 169.804 337.071 167.404 331.93 165.435C341.569 160.615 352.968 155.26 365.3 150.134C373.351 150.81 381.438 150.927 389.505 150.486C390.178 151.129 389.23 152.077 388.388 152.429Z" fill="url(#paint8_linear_6_57)"/>
<path id="Vector_32" d="M374.771 179.451C381.717 179.451 387.348 173.82 387.348 166.873C387.348 159.927 381.717 154.296 374.771 154.296C367.825 154.296 362.194 159.927 362.194 166.873C362.194 173.82 367.825 179.451 374.771 179.451Z" fill="#0387FF"/>
<path id="Vector_33" d="M374.771 175.014C379.503 175.014 383.339 171.177 383.339 166.445C383.339 161.713 379.503 157.876 374.771 157.876C370.039 157.876 366.203 161.713 366.203 166.445C366.203 171.177 370.039 175.014 374.771 175.014Z" fill="url(#paint9_linear_6_57)"/>
<path id="Vector_34" d="M355.967 139.485C355.967 139.561 354.161 139.255 354.207 139.347C354.62 139.833 355.145 140.211 355.737 140.449C357.902 141.323 360.12 142.058 362.378 142.652C364.627 142.881 365.713 140.755 366.417 138.964C366.983 137.526 367.564 136.088 368.161 134.665C368.619 133.75 368.909 132.76 369.018 131.742C369.041 131.509 369.009 131.273 368.926 131.054C368.78 130.772 368.535 130.554 368.238 130.442C367.786 130.258 367.281 130.258 366.83 130.442C366.004 130.794 365.621 131.727 365.208 132.523C364.244 134.343 362.73 135.828 361.903 137.71C361.285 137.748 360.676 137.545 360.205 137.143L357.527 135.399C357.399 135.297 357.246 135.228 357.084 135.2C356.951 135.193 356.82 135.219 356.7 135.275C356.58 135.331 356.475 135.416 356.395 135.522C355.914 136.103 355.625 136.819 355.569 137.572C355.492 137.956 355.492 138.351 355.569 138.735C355.665 139.003 355.799 139.255 355.967 139.485Z" fill="#F5FAFE"/>
<path id="Vector_35" d="M358.032 135.323L358.981 135.904C359.119 135.904 359.256 136.057 359.302 136.21C359.333 136.32 359.333 136.437 359.302 136.547L358.675 139.331C358.484 140.578 358.036 141.771 357.359 142.835C356.992 143.34 354.299 141.474 353.84 141.229C352.695 140.469 351.695 139.51 350.887 138.398C350.513 137.945 350.228 137.426 350.046 136.868C349.77 135.456 349.986 133.993 350.658 132.721C351.729 130.625 353.534 131.666 354.896 132.951C355.865 133.838 356.915 134.632 358.032 135.323Z" fill="#0387FF"/>
<path id="Vector_36" d="M340.758 204.82C340.805 205.021 340.912 205.202 341.064 205.34C343.246 207.468 345.846 209.12 348.699 210.191C348.873 210.287 349.067 210.34 349.265 210.344C349.456 210.304 349.625 210.197 349.743 210.042C349.861 209.888 349.919 209.696 349.908 209.502C349.869 209.114 349.727 208.744 349.495 208.431C348.933 207.542 348.304 206.698 347.613 205.906C346.968 205.374 346.557 204.611 346.465 203.78C346.525 203.366 346.633 202.96 346.787 202.571C347.246 200.842 344.369 200.49 343.161 200.903C342.477 201.317 341.903 201.889 341.485 202.57C341.067 203.252 340.818 204.023 340.758 204.82Z" fill="#F5FAFE"/>
<path id="Vector_37" d="M333.72 156.224C333.72 156.224 328.503 163.507 333.873 169.995C337.591 174.493 343.176 177.554 348.317 180.124C349.219 180.583 350.29 180.95 351.163 181.501C352.861 182.572 351.82 183.475 350.918 184.898C348.653 188.54 346.369 192.156 344.063 195.747C342.731 197.565 341.817 199.654 341.386 201.867L347.215 203.642C350.356 198.288 353.938 193.205 357.925 188.448C359.654 186.398 361.888 183.858 361.567 181.012C361.164 178.377 360.005 175.916 358.231 173.927L347.322 161.258L333.72 156.224Z" fill="#473F47"/>
<path id="Vector_38" d="M359.057 121.414C359.241 121.949 359.761 122.378 359.838 122.944C359.914 123.51 359.333 124.183 358.95 124.811C358.568 125.438 358.308 126.647 357.788 127.488C357.695 127.674 357.544 127.824 357.359 127.917C357.192 127.977 357.016 128.008 356.839 128.009C356.144 127.989 355.454 127.876 354.789 127.672C354.671 127.597 354.53 127.564 354.391 127.58C354.275 127.649 354.187 127.758 354.146 127.886C353.368 129.496 352.995 131.271 353.06 133.058C353.06 133.639 353.06 134.374 352.585 134.665C352.413 134.777 352.209 134.831 352.004 134.818C350.658 134.818 349.633 133.609 348.944 132.415C348.381 131.343 347.944 130.208 347.644 129.034C347.534 128.693 347.493 128.335 347.521 127.978C347.592 127.563 347.737 127.164 347.95 126.8C348.628 125.474 349.177 124.085 349.587 122.653C349.943 120.777 350.583 118.966 351.484 117.283C351.834 116.748 352.342 116.336 352.937 116.104C353.618 115.956 354.326 115.993 354.988 116.212C356.37 116.433 357.613 117.178 358.461 118.293C358.721 118.69 358.843 120.725 359.057 121.414Z" fill="#F5FAFE"/>
<path id="Vector_39" d="M345.639 162.207C344.471 162.393 343.275 162.325 342.135 162.008C340.464 161.673 338.754 161.575 337.056 161.717C336.047 161.97 335.059 162.303 334.103 162.712C333.327 162.92 332.515 162.959 331.722 162.824C330.93 162.689 330.176 162.385 329.513 161.931C329.513 161.702 329.513 161.457 329.513 161.227C329.742 159.177 328.885 156.27 329.513 154.296C331.762 146.416 333.674 140.525 338.157 133.762C339.443 131.819 344.507 129.325 346.588 128.284C347.061 128.03 347.582 127.879 348.118 127.84C348.734 127.866 349.337 128.033 349.877 128.33C351.729 129.233 352.448 130.916 353.35 132.66C354.402 134.437 355.118 136.393 355.462 138.429C355.691 141.061 356.625 143.524 355.125 145.972C353.06 149.415 349.633 151.741 347.72 155.459C347.381 155.996 347.191 156.614 347.169 157.249C347.169 158.137 347.797 158.948 347.797 159.835C347.734 160.408 347.491 160.946 347.104 161.372C346.716 161.798 346.203 162.09 345.639 162.207Z" fill="#0387FF"/>
<path id="Vector_40" d="M357.436 149.797C358.17 150.134 358.966 150.425 359.593 150.67C363.189 151.815 366.917 152.494 370.686 152.689C375.426 153.288 380.217 153.375 384.976 152.949C386.92 152.8 388.804 152.209 390.484 151.22C390.974 150.899 391.479 150.318 391.234 149.782C391.092 149.543 390.877 149.356 390.622 149.247C388.784 148.277 386.712 147.842 384.639 147.992C384.639 147.273 384.456 146.355 383.752 146.293C383.048 146.232 382.635 147.196 382.222 147.824C381.304 149.354 379.162 149.522 377.448 149.507C373.488 149.565 369.534 149.159 365.667 148.298C363.729 147.835 361.85 147.153 360.067 146.263C358.92 145.681 356.609 143.279 355.477 144.564C354.345 145.85 353.289 146.707 354.819 148.068C355.599 148.774 356.481 149.357 357.436 149.797Z" fill="#F5FAFE"/>
<path id="Vector_41" d="M351.469 135.032C351.469 135.032 357.466 143.493 358.338 143.998C359.21 144.503 352.953 150.654 352.953 150.654C352.953 150.654 345.7 142.805 344.859 138.796C344.017 134.787 347.766 132.033 351.469 135.032Z" fill="#0387FF"/>
<path id="Vector_42" d="M358.415 117.466C358.157 117.818 357.83 118.114 357.454 118.335C357.078 118.556 356.66 118.698 356.227 118.752C355.473 118.872 354.711 118.938 353.947 118.95C353.947 118.95 353.81 118.95 353.764 118.95C353.736 118.982 353.715 119.018 353.702 119.057C353.689 119.097 353.684 119.139 353.687 119.18C353.655 119.768 353.503 120.342 353.24 120.869C352.976 121.395 352.608 121.862 352.157 122.24C352.039 122.315 351.943 122.421 351.882 122.546C351.82 122.725 351.82 122.919 351.882 123.097C351.989 123.71 351.989 124.336 351.882 124.948C351.794 125.57 351.504 126.146 351.055 126.586C350.944 126.663 350.863 126.776 350.826 126.907C350.825 127.021 350.857 127.132 350.918 127.228C351.128 127.868 351.085 128.564 350.795 129.172C350.22 128.73 349.554 128.421 348.845 128.268C348.136 128.115 347.402 128.12 346.695 128.284C346.265 128.321 345.859 128.492 345.532 128.774C343.482 130.931 341.799 133.486 339.641 135.567C338.723 136.455 337.698 137.235 336.842 138.199C335.55 139.775 334.517 141.547 333.781 143.447C333.22 144.937 332.475 146.351 331.563 147.655C331.104 148.304 330.522 148.855 329.85 149.278C329.178 149.701 328.429 149.986 327.646 150.119C326.905 150.18 326.159 150.086 325.456 149.844C324.752 149.602 324.107 149.216 323.561 148.711C322.606 147.835 321.924 146.702 321.598 145.448C321.272 144.194 321.316 142.872 321.725 141.642C321.924 141.261 321.979 140.821 321.878 140.403C321.759 140.171 321.592 139.968 321.388 139.806C320.45 138.829 319.927 137.526 319.927 136.172C319.927 134.817 320.45 133.515 321.388 132.538C322.413 131.574 324.877 130.64 325.014 129.049C325.152 127.458 323.729 125.882 324.311 124.046C324.521 123.487 324.826 122.97 325.213 122.516C325.951 121.432 326.951 120.553 328.12 119.96C329.303 119.562 330.544 119.36 331.792 119.364C335.801 119.088 339.993 117.833 342.64 114.773C343.236 113.98 343.891 113.234 344.599 112.539C345.429 111.897 346.374 111.419 347.383 111.132C349.811 110.203 352.489 110.165 354.942 111.025C355.794 111.38 356.555 111.924 357.167 112.616C357.779 113.308 358.227 114.129 358.476 115.018C358.642 115.407 358.722 115.826 358.711 116.249C358.701 116.671 358.6 117.086 358.415 117.466Z" fill="#878ABC"/>
<path id="Vector_43" d="M357.971 124.092C357.382 124.072 356.795 124.021 356.212 123.939C356.043 124.26 356.808 125.469 356.977 125.561C357.057 125.63 357.161 125.669 357.267 125.669C357.374 125.669 357.477 125.63 357.558 125.561C357.626 125.464 357.672 125.355 357.696 125.239L357.971 124.076" fill="white"/>
<path id="Vector_44" d="M356.594 121.49C356.848 121.49 357.053 121.285 357.053 121.031C357.053 120.778 356.848 120.572 356.594 120.572C356.341 120.572 356.135 120.778 356.135 121.031C356.135 121.285 356.341 121.49 356.594 121.49Z" fill="#231F20"/>
<path id="Vector_45" d="M367.524 126.818L366.863 126.692C366.448 126.613 366.047 126.885 365.968 127.3L365.127 131.719C365.048 132.134 365.32 132.535 365.735 132.614L366.397 132.74C366.812 132.819 367.212 132.547 367.291 132.132L368.133 127.712C368.212 127.297 367.939 126.897 367.524 126.818Z" fill="#0387FF"/>
<path id="Vector_46" d="M366.187 127.182C365.785 127.225 365.403 127.378 365.082 127.623C364.761 127.869 364.513 128.198 364.367 128.575C364.24 129.066 364.266 129.583 364.441 130.059C364.616 130.534 364.932 130.945 365.346 131.237C366.188 131.802 367.154 132.154 368.161 132.262C368.308 132.313 368.465 132.328 368.619 132.307C368.774 132.286 368.921 132.228 369.049 132.14C369.18 131.995 369.266 131.814 369.293 131.62C369.534 130.938 369.633 130.214 369.584 129.493C369.374 128.773 368.92 128.149 368.301 127.728C367.681 127.306 366.934 127.113 366.187 127.182Z" fill="#F5FAFE"/>
<path id="Vector_47" d="M363.403 123.893L363.25 125.637C363.199 125.868 363.241 126.11 363.367 126.31C363.493 126.511 363.693 126.653 363.923 126.708C366.855 126.914 369.724 127.661 372.384 128.911C373.827 129.723 375.198 130.655 376.484 131.696C377.005 132.109 377.754 131.696 377.877 130.809L379.239 121.628C379.361 120.817 378.78 120.251 378.168 120.557C375.612 121.858 369.875 124.245 364.566 122.776C363.999 122.638 363.464 123.174 363.403 123.893Z" fill="#0387FF"/>
<path id="Vector_48" d="M341.126 202.938C340.393 203.409 339.851 204.125 339.596 204.958C339.511 205.216 339.511 205.495 339.596 205.753C339.703 205.984 339.866 206.183 340.07 206.335C342.517 208.514 345.269 210.324 348.24 211.705C348.617 211.898 349.027 212.018 349.449 212.057C349.658 212.081 349.87 212.05 350.063 211.967C350.256 211.883 350.424 211.751 350.551 211.583C350.696 211.338 350.77 211.057 350.765 210.772C350.781 210.247 350.692 209.724 350.501 209.234C350.31 208.745 350.023 208.298 349.656 207.923C349.288 207.547 348.849 207.249 348.364 207.047C347.879 206.845 347.358 206.744 346.833 206.748C346.456 206.779 346.077 206.779 345.7 206.748C345.348 206.658 345.016 206.502 344.721 206.289C343.917 205.82 343.159 205.277 342.457 204.667C341.983 204.114 341.539 203.537 341.126 202.938Z" fill="#473F47"/>
</g>
<defs>
<filter id="filter0_d_6_57" x="0" y="0" width="566" height="394" filterUnits="userSpaceOnUse" color-interpolation-filters="sRGB">
<feFlood flood-opacity="0" result="BackgroundImageFix"/>
<feColorMatrix in="SourceAlpha" type="matrix" values="0 0 0 0 0 0 0 0 0 0 0 0 0 0 0 0 0 0 127 0" result="hardAlpha"/>
<feOffset dy="4"/>
<feGaussianBlur stdDeviation="2"/>
<feComposite in2="hardAlpha" operator="out"/>
<feColorMatrix type="matrix" values="0 0 0 0 0 0 0 0 0 0 0 0 0 0 0 0 0 0 0.25 0"/>
<feBlend mode="normal" in2="BackgroundImageFix" result="effect1_dropShadow_6_57"/>
<feBlend mode="normal" in="SourceGraphic" in2="effect1_dropShadow_6_57" result="shape"/>
</filter>
<linearGradient id="paint0_linear_6_57" x1="-159.774" y1="-72.0221" x2="989.074" y2="787.166" gradientUnits="userSpaceOnUse">
<stop offset="0.01"/>
<stop offset="0.08" stop-opacity="0.69"/>
<stop offset="0.21" stop-opacity="0.32"/>
<stop offset="1" stop-opacity="0"/>
</linearGradient>
<linearGradient id="paint1_linear_6_57" x1="59788.8" y1="21692.4" x2="64189.1" y2="58092.2" gradientUnits="userSpaceOnUse">
<stop offset="0.01"/>
<stop offset="0.08" stop-opacity="0.69"/>
<stop offset="0.21" stop-opacity="0.32"/>
<stop offset="1" stop-opacity="0"/>
</linearGradient>
<linearGradient id="paint2_linear_6_57" x1="49803.9" y1="5724.64" x2="48664.4" y2="31551.2" gradientUnits="userSpaceOnUse">
<stop offset="0.01"/>
<stop offset="0.08" stop-opacity="0.69"/>
<stop offset="0.21" stop-opacity="0.32"/>
<stop offset="1" stop-opacity="0"/>
</linearGradient>
<linearGradient id="paint3_linear_6_57" x1="49410.5" y1="5717.24" x2="49878.5" y2="18474" gradientUnits="userSpaceOnUse">
<stop offset="0.01"/>
<stop offset="0.08" stop-opacity="0.69"/>
<stop offset="0.21" stop-opacity="0.32"/>
<stop offset="1" stop-opacity="0"/>
</linearGradient>
<linearGradient id="paint4_linear_6_57" x1="18032.9" y1="6112.51" x2="17271.4" y2="18952.8" gradientUnits="userSpaceOnUse">
<stop offset="0.01"/>
<stop offset="0.08" stop-opacity="0.69"/>
<stop offset="0.21" stop-opacity="0.32"/>
<stop offset="1" stop-opacity="0"/>
</linearGradient>
<linearGradient id="paint5_linear_6_57" x1="8290.34" y1="4272.65" x2="8176.32" y2="5258.5" gradientUnits="userSpaceOnUse">
<stop offset="0.01"/>
<stop offset="0.08" stop-opacity="0.69"/>
<stop offset="0.21" stop-opacity="0.32"/>
<stop offset="1" stop-opacity="0"/>
</linearGradient>
<linearGradient id="paint6_linear_6_57" x1="59660.8" y1="6304.16" x2="72488.1" y2="153260" gradientUnits="userSpaceOnUse">
<stop offset="0.01"/>
<stop offset="0.08" stop-opacity="0.69"/>
<stop offset="0.21" stop-opacity="0.32"/>
<stop offset="1" stop-opacity="0"/>
</linearGradient>
<linearGradient id="paint7_linear_6_57" x1="46498.3" y1="10692.9" x2="47627.4" y2="21366.6" gradientUnits="userSpaceOnUse">
<stop offset="0.01"/>
<stop offset="0.08" stop-opacity="0.69"/>
<stop offset="0.21" stop-opacity="0.32"/>
<stop offset="1" stop-opacity="0"/>
</linearGradient>
<linearGradient id="paint8_linear_6_57" x1="12783.9" y1="9149.93" x2="20484.9" y2="8534.36" gradientUnits="userSpaceOnUse">
<stop offset="0.01"/>
<stop offset="0.08" stop-opacity="0.69"/>
<stop offset="0.21" stop-opacity="0.32"/>
<stop offset="1" stop-opacity="0"/>
</linearGradient>
<linearGradient id="paint9_linear_6_57" x1="3946.32" y1="1520.28" x2="6030.87" y2="3347.34" gradientUnits="userSpaceOnUse">
<stop offset="0.01"/>
<stop offset="0.08" stop-opacity="0.69"/>
<stop offset="0.21" stop-opacity="0.32"/>
<stop offset="1" stop-opacity="0"/>
</linearGradient>
<clipPath id="clip0_6_57">
<rect width="558" height="386" fill="white" transform="translate(4)"/>
</clipPath>
</defs>
</svg>
